<?xml version="1.0" encoding="iso-8859-1"?>
<!-- Generator: Adobe Illustrator 16.0.0, SVG Export Plug-In . SVG Version: 6.00 Build 0)  -->
<!DOCTYPE svg PUBLIC "-//W3C//DTD SVG 1.1//EN" "http://www.w3.org/Graphics/SVG/1.1/DTD/svg11.dtd">
<svg version="1.1" xmlns="http://www.w3.org/2000/svg" xmlns:xlink="http://www.w3.org/1999/xlink" x="0px" y="0px" width="400px"
	 height="400px" viewBox="0 0 400 400" style="enable-background:new 0 0 400 400;" xml:space="preserve">
<g id="Layer_6">
</g>
<g id="Layer_5">
</g>
<g id="Layer_4">
</g>
<g id="Layer_3">
</g>
<g id="Layer_1">
	<polygon style="fill:#3399FF;" points="15.281,291.755 8.938,85.203 78.617,193.165 	"/>
	<polyline style="fill:#343535;" points="78.25,192.596 138.727,286.299 14.914,291.186 	"/>
	<polyline style="fill:#828384;" points="22.803,303.407 146.617,298.522 193.947,371.855 	"/>
	<polyline style="fill:#FFFFFF;" points="78.25,192.596 142.061,291.463 35.076,278.209 	"/>
	<polyline style="fill:#FFFFFF;" points="35.076,278.209 126.863,267.917 193.947,371.855 	"/>
	<polygon style="fill:#FFFFFF;" points="35.076,278.209 31.77,120.58 100.211,226.62 	"/>
	
		<rect x="107.228" y="52.942" transform="matrix(0.84 -0.5425 0.5425 0.84 -112.5439 97.1642)" style="fill:#FFFFFF;" width="2.547" height="372.991"/>
	<polygon style="fill:#3399FF;" points="49.221,244.869 96.551,43.71 135.914,166.029 	"/>
	<polyline style="fill:#343535;" points="135.705,165.384 169.871,271.546 49.012,244.222 	"/>
	<polyline style="fill:#828384;" points="53.467,258.07 174.326,285.396 201.065,368.481 	"/>
	<polygon style="fill:#FFFFFF;" points="71.844,236.904 109.451,83.791 148.111,203.933 	"/>
	<polyline style="fill:#FFFFFF;" points="135.705,165.384 171.756,277.397 71.844,236.904 	"/>
	<polyline style="fill:#FFFFFF;" points="71.844,236.904 163.17,250.721 201.065,368.481 	"/>
	
		<rect x="151.531" y="31.963" transform="matrix(0.9515 -0.3076 0.3076 0.9515 -59.7868 57.5911)" style="fill:#FFFFFF;" width="2.546" height="372.991"/>
	<polygon style="fill:#3399FF;" points="94.062,208.204 191.844,26.153 198.208,154.492 	"/>
	<polyline style="fill:#343535;" points="198.173,153.814 203.697,265.205 94.027,207.529 	"/>
	<polyline style="fill:#828384;" points="94.75,222.059 204.418,279.733 208.74,366.908 	"/>
	<polygon style="fill:#FFFFFF;" points="117.975,206.372 193.93,68.207 200.18,194.26 	"/>
	<polyline style="fill:#FFFFFF;" points="198.173,153.814 204.003,271.342 117.975,206.372 	"/>
	<polyline style="fill:#FFFFFF;" points="117.975,206.372 202.614,243.353 208.74,366.908 	"/>
	
		<rect x="199.678" y="23.012" transform="matrix(0.9988 -0.0491 0.0491 0.9988 -10.0436 10.1185)" style="fill:#FFFFFF;" width="2.546" height="372.99"/>
	<polygon style="fill:#3399FF;" points="146.756,184.265 288.323,33.725 261.253,159.34 	"/>
	<polyline style="fill:#343535;" points="261.396,158.677 237.902,267.699 146.896,183.604 	"/>
	<polyline style="fill:#828384;" points="143.834,197.824 234.836,281.92 216.45,367.244 	"/>
	<polygon style="fill:#FFFFFF;" points="170.328,188.686 279.451,74.887 252.864,198.264 	"/>
	<polyline style="fill:#FFFFFF;" points="261.396,158.677 236.606,273.708 170.328,188.686 	"/>
	<polyline style="fill:#FFFFFF;" points="170.328,188.686 242.511,246.311 216.45,367.244 	"/>
	
		<rect x="248.391" y="26.694" transform="matrix(0.9776 0.2105 -0.2105 0.9776 50.4628 -47.7718)" style="fill:#FFFFFF;" width="2.547" height="372.99"/>
	<polygon style="fill:#3399FF;" points="203.562,174.588 379.271,65.815 320.612,180.144 	"/>
	<polygon style="fill:#0066CC;" points="379.271,65.815 320.612,180.144 393.39,271.983 	"/>
	<polyline style="fill:#343535;" points="320.922,179.538 270.01,278.767 203.872,173.985 	"/>
	<polyline style="fill:#131313;" points="320.922,179.538 270.01,278.767 393.699,271.381 	"/>
	<polyline style="fill:#828384;" points="197.232,186.927 263.37,291.71 223.526,369.365 	"/>
	<polyline style="fill:#2F3030;" points="263.37,291.71 223.526,369.365 387.089,284.339 	"/>
</g>
</svg>
