<?xml version="1.0" encoding="UTF-8" standalone="yes"?>
<!-- Created with sK1/UniConvertor (http://sk1project.org/) -->
<svg xmlns="http://www.w3.org/2000/svg" xmlns:xlink="http://www.w3.org/1999/xlink"
  width="208pt" height="196pt" viewBox="0 0 208 196"
  fill-rule="evenodd">
<g>
<g>
<path style="stroke:none; fill:#000000" d="M 82.5 2.7C 73.2 8.59999 62.7 21.2 57.5 32.5C 49.2 50.7 47.6 58.8 47.6 80.5C 47.5 96.2 47.9 99.7 49.9 108C 52.3 117.2 57.9 132 58 129C 58 128.2 57.1 123.9 55.9 119.5C 53.3 109.2 52.3 87 53.9 76.3C 57 56.7 65.1 39.1 76.5 27.4C 80.4 23.4 85.4 19 87.7 17.5C 91.4 15.1 91.9 14.4 91.3 12.1C 88.9 2.3 88.3 0.600006 87.5 0.400009C 86.9 0.200012 84.7 1.29999 82.5 2.7z"/>
<path style="stroke:none; fill:#000000" d="M 102.5 32C 99.2 32.4 95.3 33.2 93.9 33.8C 88.3 36.1 80 42.2 74.7 48C 68.8 54.6 59.5 71.4 60.1 74.5C 60.4 75.8 61.4 74.6 63.4 70.7C 67 63.9 74.5 55.2 80.9 50.7C 86.6 46.6 99.2 42 104.8 42C 110.3 42 121.4 45.9 128.3 50.3C 131.5 52.3 134.2 54 134.5 54C 135.5 54 140 43.9 139.5 42.9C 138.6 41.5 130.7 36.5 129.8 36.8C 129.3 36.9 129 36.6 129 36.1C 129 34.7 120.3 32.1 114 31.6C 111 31.4 105.8 31.5 102.5 32z"/>
<path style="stroke:none; fill:#000000" d="M 18.6 43C 17.5 48.7 18.1 77.2 19.4 85C 21.3 95.5 24.6 107 27.6 113.8C 33.1 126 33.5 126.7 40.2 136.7C 46.3 145.9 59.3 157.4 69.3 162.5C 79.7 167.8 98 171.9 98 169C 98 168.4 97.2 168 96.3 168C 90.9 168 75.7 159.6 66.6 151.6C 54.7 141.3 43.8 123.6 38.2 105.5C 32.9 88.7 31.7 79 32.2 60L 32.7 43.4L 28.1 42.2C 25.6 41.6 22.6 40.8 21.4 40.5C 19.6 39.9 19.2 40.4 18.6 43z"/>
<path style="stroke:none; fill:#000000" d="M 92 59.7C 82.9 63 78.9 82.7 85.4 92.2C 86.6 94 90 96.9 93 98.7C 104.6 105.4 107.1 107.3 109.5 111.4C 111.8 115.3 112 116.9 112.5 130.6C 112.8 140.9 113.5 147.9 115 153.4C 122.5 182.6 146.6 200 170.8 193.6C 176.2 192.1 184.4 187.5 187.5 184C 188.5 182.9 189.8 182.3 190.4 182.7C 191 183 191.2 183 190.8 182.5C 190.4 182.1 191.6 179.9 193.4 177.6C 198.1 171.9 202.8 162.2 205.2 153.1C 208.1 142.3 208.1 121.7 205.1 110.7C 200.5 93.5 190.3 79.7 177.2 73.3C 170 69.7 169.1 69.5 160.1 69.5C 151.4 69.5 149.9 69.8 144 72.6C 132.4 78.1 123.9 87.9 118 102.2L 115.7 107.9L 113.7 103.9C 111.4 99.1 106.7 95.4 97.4 90.7C 88.5 86.2 87.5 85 87.5 78.3C 87.5 73.4 87.8 72.5 90.8 69.9C 92.7 68.2 95.2 67 96.8 67C 103.4 67 110.8 75.5 113.1 85.6C 115 93.9 116.4 92.3 115.7 82.7C 115.3 78.2 115 72.2 115 69.4C 115 64.3 115 64.3 110.1 61.7C 106.3 59.6 103.9 59 99.4 59.1C 96.1 59.1 92.8 59.4 92 59.7zM 155.3 72.7C 154.6 72.9 153.4 72.9 152.8 72.7C 152.1 72.4 152.6 72.2 154 72.2C 155.4 72.2 155.9 72.4 155.3 72.7zM 168.7 72.6C 168.4 72.9 167.5 73 166.8 72.7C 166 72.4 166.3 72.1 167.4 72.1C 168.5 72 169.1 72.3 168.7 72.6zM 145.4 75.9C 126.2 86.9 114.8 119.9 120.6 147.8C 124.2 165.5 133.8 181.2 145 187.9C 149.4 190.6 148.2 190.6 143 188C 140.9 186.9 136.7 183.6 133.7 180.7C 127.3 174.5 120.3 161.1 116.9 148.6C 114.8 140.9 114.8 140.4 116.4 133C 117.3 128.8 118 122.5 117.9 118.9C 117.7 112.5 120.5 101 122.2 101C 122.7 101 122.9 100.6 122.6 100.1C 121.6 98.6 131.7 84.3 136.3 80.6C 140.5 77.2 147.7 73.1 149.5 73.1C 150.1 73 148.2 74.3 145.4 75.9zM 167.8 76.9C 168 77.4 168.7 77.7 169.4 77.4C 171.4 76.6 178.9 82.9 182.6 88.3C 190 99.1 193 111.8 193 133.1C 193 145.3 192.6 150.3 191.1 156.2C 184.6 181.6 167.3 194.5 150.5 186.6C 141.2 182.3 134.5 173 129.8 158C 127.7 151.3 127.5 148.6 127.5 132C 127.5 115.4 127.7 112.7 129.8 106C 135.1 89.2 142.9 79.5 154 75.9C 157.2 74.8 167.4 75.6 167.8 76.9zM 185.2 83C 190 88.4 193.9 95.9 197 105.5C 200.4 116.1 201 141.1 198.1 153.2C 195.5 164.1 191.5 173 186.1 179.7C 182.2 184.7 173.2 191 170 191C 169.2 191 170.3 190.1 172.5 189.1C 180.9 185.3 188 175.4 192.4 161.1C 201.4 132.5 195.5 95.1 179.6 79.6C 175.2 75.3 175 74.9 177.9 76.6C 179.7 77.6 183 80.5 185.2 83zM 155.3 191.7C 154.6 191.9 153.4 191.9 152.8 191.7C 152.1 191.4 152.6 191.2 154 191.2C 155.4 191.2 155.9 191.4 155.3 191.7zM 167.3 191.7C 166.6 191.9 165.4 191.9 164.8 191.7C 164.1 191.4 164.6 191.2 166 191.2C 167.4 191.2 167.9 191.4 167.3 191.7z"/>
<path style="stroke:none; fill:#000000" d="M 149 88.1C 141.9 90.9 134.3 102.5 131.4 114.7C 129.2 123.8 130 142.2 132.8 150.1C 136.7 161 141.9 168.3 148.2 171.6C 154.7 175 165.5 172.2 170.4 165.8C 172.9 162.4 175.5 157.1 175.2 155.8C 175.1 155.3 175.4 155 176 155C 176.5 155 176.7 154.3 176.4 153.5C 176 152.7 176.2 152 176.8 152C 177.4 152 177.6 151 177.2 149.8C 176.9 148.3 177 147.9 177.9 148.4C 178.8 149 178.9 148.4 178.4 146.4C 178 144.9 178.1 143.9 178.6 144.3C 179.1 144.6 179.2 140.4 178.9 134.2C 178 119.2 174.6 110.2 167.2 103.7C 162.4 99.4 161.5 99 156.9 99C 151.2 99 147.1 100.8 144.2 104.5C 143.1 105.9 141.8 107 141.2 107C 139.5 107 137.5 110.2 137.8 112.5C 138 113.6 136.8 117.4 135.2 120.8L 132.3 126.9L 132.3 122.7C 132.3 119.6 132.5 119 133.1 120.5C 133.6 122 133.9 121.3 134 118C 134.1 110 140.1 99.6 147.2 94.9C 151.8 91.8 157.5 91.1 162.7 93.1C 166 94.3 172 99.9 172 101.7C 172 102.4 172.4 103 172.9 103C 173.3 103 174.9 105.6 176.3 108.7C 179.2 115 179.9 113.9 177.5 106.9C 172.1 91.8 160 83.8 149 88.1zM 162.2 103.6C 166.3 105.5 172.8 116 174.5 123.3C 175.1 126.2 175.4 130.6 175.2 133.2L 174.8 138L 171.4 135.4C 167.5 132.4 160.8 128.8 160.2 129.4C 160 129.7 162.1 131 164.9 132.5C 168.3 134.2 169.8 135.5 169.4 136.3C 169 137 169.1 137.2 169.5 136.7C 171.1 135.3 174 139.2 174 142.7C 174 144.5 173.6 146 173 146C 172.5 146 172 145.1 172 143.9C 172 142.7 171.6 142.2 170.9 142.6C 170.1 143 170 142.5 170.5 140.9C 170.9 139.2 170.8 138.9 170.2 139.9C 169.5 140.9 168.8 141 167.4 140.1C 165.6 139.1 165.6 139.1 167.5 139C 168.6 138.9 167.4 138.2 164.8 137.4C 160.5 136.1 160 135.6 159.4 132.2C 159 130.2 157.8 126.5 156.6 124L 154.5 119.5L 154.2 126.9C 153.9 134.1 153.9 134.2 151.9 132.5C 150.9 131.5 149.7 131 149.3 131.3C 149 131.7 149.2 132 149.8 132C 150.5 132 151 132.4 151 133C 151 133.5 150.4 134 149.6 134C 148 134 147.4 132.5 146.5 125.9C 145.5 118.8 144.5 117.9 141.5 121.5C 138.4 125.3 138.4 124.2 141.5 118C 143.1 114.7 143.6 113 142.8 112.8C 141.2 112.2 143.6 108.9 148.5 105C 152.8 101.6 157.1 101.1 162.2 103.6zM 144.5 134C 145 139.7 144.8 143 143.9 145.1C 142.3 149.2 141.1 147.2 140.3 138.6C 139.7 132.3 141.1 126 143 126C 143.4 126 144.1 129.6 144.5 134z"/>
<path style="stroke:none; fill:#000000" d="M 149 125C 148.1 125.6 148 126 148.7 126C 149.3 126 150.2 125.5 150.5 125C 151.3 123.8 150.9 123.8 149 125z"/>
<path style="stroke:none; fill:#000000" d="M 150.5 127C 150.2 127.5 150.4 128 150.9 128C 151.5 128 152 127.5 152 127C 152 126.4 151.8 126 151.6 126C 151.3 126 150.8 126.4 150.5 127z"/>
<path style="stroke:none; fill:#000000" d="M 161 133C 161.8 133.5 163 134 163.5 134C 164.1 134 163.8 133.5 163 133C 162.2 132.5 161.1 132 160.5 132C 160 132 160.2 132.5 161 133z"/>
<path style="stroke:none; fill:#000000" d="M 179.8 127.2C 180.2 142.9 180.7 144.8 180.8 131C 180.8 124.7 180.5 118.7 180.2 117.7C 179.8 116.8 179.6 121 179.8 127.2z"/>
<path style="stroke:none; fill:#000000" d="M 76.7 79.9C 76.3 81.7 76 86.9 76 91.4C 76.1 105.1 80.1 111.3 93.4 118.2C 102.6 123 105 126.2 105 133.3C 105 144.5 96 151.1 89.5 144.6C 86.2 141.3 82.4 133.4 80.3 125.4L 78.5 118.5L 78.2 133.5C 78.1 141.7 78.1 148.9 78.4 149.5C 78.6 150.1 81.3 151.8 84.3 153.3C 95.1 158.6 103.2 156.2 107.7 146.4C 110 141.4 110.2 139.9 109.8 131C 109.5 121.8 109.2 120.9 106.4 117.3C 103.2 113.4 102 112.5 91 106.1C 82.8 101.3 79.4 95.4 78.2 84C 77.5 77.5 77.3 77 76.7 79.9z"/>
</g>
</g>
</svg>