<svg id="4cc465d7-c138-42f6-8f44-b4a9e1919a4a" data-name="Layer 1" xmlns="http://www.w3.org/2000/svg" viewBox="0 0 135.47 40.26"><defs><style>.\31 b5a1b0a-249c-43ed-a2d8-f697bdf55060,.\32 d0b3a15-e257-41f6-9b3b-31486e2557b7,.\33 34aba32-ef93-41e5-8309-2e55e871d13d,.\35 65fb92d-00e6-45db-9f2f-93d7ec8ffa39,.\35 6eb885f-a70d-4384-bbe2-4130dbec3efa,.d7f958ac-558b-4ce7-bbde-bd6068e7ce88{fill:#f2612e;}.\38 9be79e0-14f9-4010-ba34-ce2b3d8d670f{fill:#592f13;}.\33 b694e9f-3700-4287-b850-2ef222213172{fill:#fff;}.bc0c0167-74a4-4576-8a6f-e6deb2af970e{fill:#f15b27;}.\30 80e4e91-776f-4ea1-a35d-c9a91f40dbd2{fill:#412312;}.\39 b92910b-008c-45a5-a03b-e7842cf62fdc{fill:#828385;}.\31 a08cb50-18f9-4104-b654-147ebac0016a{fill:#2f3030;}.fe3ce85c-aba7-42d6-bf65-26cabcb09678{font-size:20px;fill:#15232c;font-family:AvenirNext-UltraLight, Avenir Next;letter-spacing:0.01em;}.\37 e4f7e9b-8ad3-4512-941f-7a703d8fccca{letter-spacing:0.01em;}.\38 01e823e-deb8-4488-a977-7c9a5b1ee9b0{letter-spacing:0.03em;}.\33 e56e1fa-76e2-4260-bf1d-fdc85832981b{letter-spacing:0.03em;}.\31 b5a1b0a-249c-43ed-a2d8-f697bdf55060,.\32 d0b3a15-e257-41f6-9b3b-31486e2557b7,.\35 65fb92d-00e6-45db-9f2f-93d7ec8ffa39,.\35 6eb885f-a70d-4384-bbe2-4130dbec3efa,.d7f958ac-558b-4ce7-bbde-bd6068e7ce88{font-family:AvenirNext-Regular, Avenir Next;}.\35 65fb92d-00e6-45db-9f2f-93d7ec8ffa39{letter-spacing:0.02em;}.\35 6eb885f-a70d-4384-bbe2-4130dbec3efa{letter-spacing:0.02em;}.\32 d0b3a15-e257-41f6-9b3b-31486e2557b7{letter-spacing:0.03em;}.d7f958ac-558b-4ce7-bbde-bd6068e7ce88{letter-spacing:0.04em;}.\31 b5a1b0a-249c-43ed-a2d8-f697bdf55060{letter-spacing:0.02em;}</style></defs><title>web logo</title><polygon class="334aba32-ef93-41e5-8309-2e55e871d13d" points="34.95 19.93 34.98 5.74 30.41 13.29 34.95 19.93"/><polyline class="89be79e0-14f9-4010-ba34-ce2b3d8d670f" points="30.44 13.25 26.47 19.8 34.98 19.89"/><polyline class="3b694e9f-3700-4287-b850-2ef222213172" points="30.44 13.25 26.25 20.16 33.57 19.04"/><polyline class="3b694e9f-3700-4287-b850-2ef222213172" points="33.58 19.05 27.26 18.51 22.84 25.77"/><polygon class="334aba32-ef93-41e5-8309-2e55e871d13d" points="12.85 19.87 12.82 5.69 17.39 13.23 12.85 19.87"/><polyline class="89be79e0-14f9-4010-ba34-ce2b3d8d670f" points="17.36 13.19 21.33 19.74 12.82 19.83"/><polyline class="3b694e9f-3700-4287-b850-2ef222213172" points="17.36 13.19 21.55 20.11 14.23 18.98"/><polyline class="3b694e9f-3700-4287-b850-2ef222213172" points="14.23 18.98 20.55 18.46 24.95 25.73"/><polygon class="334aba32-ef93-41e5-8309-2e55e871d13d" points="15.41 19.39 23.91 5.26 23.92 15.51 15.41 19.39"/><polygon class="bc0c0167-74a4-4576-8a6f-e6deb2af970e" points="23.91 5.26 23.92 15.51 32.43 19.38 23.91 5.26"/><polyline class="89be79e0-14f9-4010-ba34-ce2b3d8d670f" points="23.92 15.46 23.92 24.35 15.41 19.33"/><polyline class="080e4e91-776f-4ea1-a35d-c9a91f40dbd2" points="23.92 15.46 23.92 24.35 32.43 19.32"/><polyline class="9b92910b-008c-45a5-a03b-e7842cf62fdc" points="15.4 19.74 23.9 24.79 23.88 31.75"/><polyline class="1a08cb50-18f9-4104-b654-147ebac0016a" points="23.92 24.79 23.9 31.75 32.44 19.79"/><text class="fe3ce85c-aba7-42d6-bf65-26cabcb09678" transform="translate(46.53 25.3) scale(0.91 1)">F<tspan class="7e4f7e9b-8ad3-4512-941f-7a703d8fccca" x="11.38" y="0">o</tspan><tspan class="801e823e-deb8-4488-a977-7c9a5b1ee9b0" x="23.71" y="0">r</tspan><tspan class="3e56e1fa-76e2-4260-bf1d-fdc85832981b" x="30.6" y="0">k</tspan><tspan class="565fb92d-00e6-45db-9f2f-93d7ec8ffa39" x="40.12" y="0">D</tspan><tspan class="56eb885f-a70d-4384-bbe2-4130dbec3efa" x="55.69" y="0">e</tspan><tspan class="2d0b3a15-e257-41f6-9b3b-31486e2557b7" x="67.48" y="0">l</tspan><tspan class="d7f958ac-558b-4ce7-bbde-bd6068e7ce88" x="73.15" y="0">t</tspan><tspan class="1b5a1b0a-249c-43ed-a2d8-f697bdf55060" x="80.26" y="0">a</tspan></text></svg>